<svg width="158" height="37" viewBox="0 0 158 37" fill="none" xmlns="http://www.w3.org/2000/svg">
<path d="M39.204 36.3295H34.3807C33.9961 36.3295 33.6409 36.1235 33.4498 35.7897L20.3346 12.8776C20.2112 12.662 20.422 12.409 20.6563 12.4914L28.5698 15.2758C28.8109 15.3606 29.0138 15.5287 29.1419 15.7499L40.132 34.7192C40.5463 35.4343 40.0304 36.3295 39.204 36.3295Z" fill="url(#paint0_linear_9086_1777)"/>
<path d="M1.07415 36.3296H7.02069L15.2449 21.9105C15.455 21.5422 15.9893 21.5519 16.1859 21.9276L23.721 36.3297L30.0857 36.3296C30.9088 36.3296 31.4252 35.4407 31.0173 34.7257L18.9246 13.5258C18.6683 13.0766 18.128 12.8742 17.6397 13.0446L11.7197 15.1097C11.4762 15.1946 11.2715 15.3644 11.143 15.5879L0.144267 34.7226C-0.266741 35.4376 0.249405 36.3296 1.07415 36.3296Z" fill="url(#paint1_linear_9086_1777)"/>
<path d="M20.6076 0.939308L27.0717 12.1812C27.3182 12.61 26.9022 13.1156 26.4339 12.9562L20.1533 10.8181C20.0389 10.7791 19.9147 10.78 19.8008 10.8205L13.873 12.9281C13.4036 13.095 12.9801 12.5874 13.2285 12.1555L19.6778 0.939308C19.884 0.580696 20.4014 0.580696 20.6076 0.939308Z" fill="#32CCF2"/>
<path d="M64.9375 35.4379H58.8214V35.2886V15.6986H53.5995C52.7649 15.6986 52.3477 15.0467 52.3477 13.743V12.2764C52.3477 10.996 52.7649 10.3558 53.5995 10.3558H70.1594C70.994 10.3558 71.4112 10.996 71.4112 12.2764V13.743C71.4112 15.0467 70.994 15.6986 70.1594 15.6986H64.9375V35.2886V35.4379Z" fill="black"/>
<path d="M78.7182 35.4379C77.8598 35.4379 72.781 35.4379 72.781 35.4379V35.3628V11.6173C72.781 11.175 72.9717 10.8491 73.3532 10.6395C73.7586 10.4067 74.3905 10.2903 75.2489 10.2903H76.2146C77.073 10.2903 77.6929 10.4067 78.0744 10.6395C78.4798 10.8491 78.6825 11.175 78.6825 11.6173V20.5218C79.0878 20.033 79.5647 19.6139 80.1131 19.2647C80.6854 18.8923 81.3053 18.6013 81.973 18.3917C82.6645 18.1822 83.3798 18.0775 84.119 18.0775C85.2635 18.0775 86.2173 18.2753 86.9803 18.6711C87.7433 19.0669 88.3156 19.6605 88.6971 20.452C89.1024 21.2202 89.3051 22.1747 89.3051 23.3154V35.3628V35.4379H83.3679V35.3628V24.6075C83.3679 24.0255 83.2248 23.5831 82.9387 23.2805C82.6764 22.9779 82.2233 22.8265 81.5795 22.8265C81.2457 22.8265 80.9 22.8964 80.5423 23.0361C80.1847 23.1525 79.8508 23.3271 79.5409 23.5599C79.2309 23.7694 78.9567 24.0255 78.7182 24.3281V35.3628V35.4379Z" fill="black"/>
<path d="M93.0044 35.4379V19.4044C93.0044 19.0319 93.1952 18.7526 93.5767 18.5663C93.9821 18.3801 94.6139 18.287 95.4723 18.287H96.4738C97.3322 18.287 97.9522 18.3801 98.3337 18.5663C98.739 18.7526 98.9417 19.0319 98.9417 19.4044V35.4379H93.0044ZM95.9731 16.5759C94.9001 16.5759 94.1251 16.4711 93.6482 16.2616C93.1714 16.0288 92.9329 15.7029 92.9329 15.2839V12.9093C92.9329 12.4903 93.1714 12.176 93.6482 11.9665C94.1251 11.7337 94.9001 11.6173 95.9731 11.6173C97.0461 11.6173 97.821 11.7337 98.2979 11.9665C98.7748 12.176 99.0132 12.4903 99.0132 12.9093V15.2839C99.0132 15.7029 98.7748 16.0288 98.2979 16.2616C97.821 16.4711 97.0461 16.5759 95.9731 16.5759Z" fill="black"/>
<path d="M102.47 35.4379V35.3628V24.4329C102.47 23.3387 102.434 22.5006 102.363 21.9186C102.315 21.3366 102.255 20.8943 102.184 20.5917C102.136 20.289 102.112 20.0097 102.112 19.7536C102.112 19.4742 102.267 19.2414 102.577 19.0552C102.887 18.869 103.269 18.7293 103.722 18.6362C104.199 18.5431 104.676 18.4849 105.153 18.4616C105.629 18.415 106.047 18.3917 106.404 18.3917C106.857 18.3917 107.179 18.4616 107.37 18.6013C107.585 18.7177 107.74 18.9505 107.835 19.2997C107.954 19.6256 108.062 20.1028 108.157 20.7314C108.61 20.2192 109.123 19.7652 109.695 19.3695C110.291 18.9505 110.935 18.6362 111.626 18.4267C112.318 18.1939 113.045 18.0775 113.808 18.0775C114.953 18.0775 115.906 18.2753 116.669 18.6711C117.432 19.0669 118.005 19.6605 118.386 20.452C118.791 21.2202 118.994 22.1747 118.994 23.3154V35.4379H113.057V24.6075C113.057 24.0255 112.914 23.5831 112.628 23.2805C112.365 22.9779 111.912 22.8265 111.269 22.8265C110.935 22.8265 110.589 22.8964 110.231 23.0361C109.874 23.1525 109.54 23.3271 109.23 23.5599C108.92 23.7694 108.646 24.0255 108.407 24.3281V35.4379H102.47Z" fill="black"/>
<path d="M128.316 35.4379H122.379V11.5824C122.379 11.1633 122.57 10.8374 122.951 10.6046C123.357 10.3718 123.989 10.2554 124.847 10.2554H125.848C126.707 10.2554 127.327 10.3718 127.708 10.6046C128.114 10.8374 128.316 11.1633 128.316 11.5824V25.1313H128.495L132.286 19.2298C132.453 18.9737 132.644 18.7875 132.859 18.6711C133.073 18.5314 133.348 18.4383 133.681 18.3917C134.015 18.3219 134.456 18.287 135.005 18.287H136.543C137.186 18.287 137.651 18.3335 137.938 18.4267C138.248 18.4965 138.403 18.6595 138.403 18.9155C138.403 19.0319 138.355 19.1833 138.259 19.3695C138.188 19.5324 138.069 19.742 137.902 19.998L132.608 27.855V25.0265L138.76 35.0485C138.879 35.258 138.831 35.2749 138.903 35.4379C137.973 35.4379 132.644 35.4379 132.644 35.4379L132.573 35.3977L128.495 28.5185H128.316V35.4379Z" fill="black"/>
<path d="M142.942 15.7152C142.412 15.7152 142.026 15.6593 141.783 15.5476C141.554 15.4358 141.439 15.2682 141.439 15.0447V12.6981H135.86C135.745 12.6981 135.638 12.5794 135.538 12.3419C135.438 12.1045 135.359 11.8321 135.302 11.5248C135.259 11.2175 135.237 10.9731 135.237 10.7915C135.237 10.7356 135.245 10.6797 135.259 10.6239C135.273 10.554 135.302 10.4912 135.345 10.4353L140.581 1.50981C140.724 1.27236 140.924 1.12569 141.182 1.06982C141.439 0.999981 141.919 0.965061 142.62 0.965061H143.542C144.043 0.965061 144.415 1.02093 144.658 1.13268C144.916 1.24442 145.045 1.41203 145.045 1.63552V10.0372H145.646C146.075 10.0372 146.289 10.3864 146.289 11.0848V11.6505C146.289 12.0137 146.239 12.2791 146.139 12.4467C146.039 12.6143 145.874 12.6981 145.646 12.6981H145.045V15.0447C145.045 15.2682 144.923 15.4358 144.68 15.5476C144.451 15.6593 144.072 15.7152 143.542 15.7152H142.942ZM138.049 11.2734L137.19 10.0372H141.439V7.02015C141.439 6.69889 141.461 6.34969 141.504 5.97256C141.561 5.59543 141.618 5.29512 141.675 5.07163L140.602 4.75735L142.19 4.02403L138.049 11.2734Z" fill="url(#paint2_linear_9086_1777)"/>
<path d="M148.567 15.6733C147.995 15.6733 147.709 15.2542 147.709 14.4162V13.6409C147.709 12.8029 147.995 12.3838 148.567 12.3838H150.606V2.59931L152.473 4.48498L148.503 5.05068C148.246 5.07861 148.052 4.98782 147.924 4.7783C147.795 4.55482 147.709 4.27546 147.666 3.94023C147.623 3.59103 147.602 3.2558 147.602 2.93454C147.602 2.58534 147.652 2.33392 147.752 2.18027C147.866 2.01265 148.074 1.90091 148.374 1.84504L153.546 0.923157C153.718 0.923157 153.904 0.986012 154.104 1.11172C154.319 1.22347 154.426 1.39807 154.426 1.63552V12.3838H156.465C157.037 12.3838 157.323 12.8029 157.323 13.6409V14.4162C157.323 15.2542 157.037 15.6733 156.465 15.6733H148.567Z" fill="url(#paint3_linear_9086_1777)"/>
<defs>
<linearGradient id="paint0_linear_9086_1777" x1="20.1391" y1="0.670349" x2="20.1391" y2="36.3297" gradientUnits="userSpaceOnUse">
<stop stop-color="#1D72D1"/>
<stop offset="1" stop-color="#6D3BF5"/>
</linearGradient>
<linearGradient id="paint1_linear_9086_1777" x1="20.1391" y1="0.670349" x2="20.1391" y2="36.3297" gradientUnits="userSpaceOnUse">
<stop stop-color="#1D72D1"/>
<stop offset="1" stop-color="#6D3BF5"/>
</linearGradient>
<linearGradient id="paint2_linear_9086_1777" x1="104.835" y1="0.923157" x2="104.835" y2="35.4379" gradientUnits="userSpaceOnUse">
<stop stop-color="#025FC8"/>
<stop offset="1" stop-color="#5A26E9"/>
</linearGradient>
<linearGradient id="paint3_linear_9086_1777" x1="104.835" y1="0.923157" x2="104.835" y2="35.4379" gradientUnits="userSpaceOnUse">
<stop stop-color="#025FC8"/>
<stop offset="1" stop-color="#5A26E9"/>
</linearGradient>
</defs>
</svg>
